<mxfile host="app.diagrams.net" modified="2020-11-03T06:43:20.947Z" agent="5.0 (Windows NT 6.3; Win64; x64) AppleWebKit/537.36 (KHTML, like Gecko) Chrome/86.0.4240.183 Safari/537.36" etag="Em1udyGM74-QulTex1BT" version="13.8.8" type="github" pages="4">
  <diagram id="C5RBs43oDa-KdzZeNtuy" name="Login">
    <mxGraphModel dx="1240" dy="689" grid="1" gridSize="10" guides="1" tooltips="1" connect="1" arrows="1" fold="1" page="1" pageScale="1" pageWidth="827" pageHeight="1169" math="0" shadow="0">
      <root>
        <mxCell id="WIyWlLk6GJQsqaUBKTNV-0" />
        <mxCell id="WIyWlLk6GJQsqaUBKTNV-1" parent="WIyWlLk6GJQsqaUBKTNV-0" />
        <mxCell id="WIyWlLk6GJQsqaUBKTNV-2" value="" style="rounded=0;html=1;jettySize=auto;orthogonalLoop=1;fontSize=11;endArrow=block;endFill=0;endSize=8;strokeWidth=1;shadow=0;labelBackgroundColor=none;edgeStyle=orthogonalEdgeStyle;" parent="WIyWlLk6GJQsqaUBKTNV-1" source="WIyWlLk6GJQsqaUBKTNV-3" target="WIyWlLk6GJQsqaUBKTNV-6" edge="1">
          <mxGeometry relative="1" as="geometry" />
        </mxCell>
        <mxCell id="WIyWlLk6GJQsqaUBKTNV-3" value="Enter Company ID, Login ID &amp;amp; Password" style="rounded=1;whiteSpace=wrap;html=1;fontSize=12;glass=0;strokeWidth=1;shadow=0;" parent="WIyWlLk6GJQsqaUBKTNV-1" vertex="1">
          <mxGeometry x="160" y="70" width="120" height="40" as="geometry" />
        </mxCell>
        <mxCell id="WIyWlLk6GJQsqaUBKTNV-5" value="invalid" style="edgeStyle=orthogonalEdgeStyle;rounded=0;html=1;jettySize=auto;orthogonalLoop=1;fontSize=11;endArrow=block;endFill=0;endSize=8;strokeWidth=1;shadow=0;labelBackgroundColor=none;" parent="WIyWlLk6GJQsqaUBKTNV-1" source="WIyWlLk6GJQsqaUBKTNV-6" edge="1">
          <mxGeometry x="-0.2" y="20" relative="1" as="geometry">
            <mxPoint as="offset" />
            <mxPoint x="320" y="210" as="targetPoint" />
          </mxGeometry>
        </mxCell>
        <mxCell id="WIyWlLk6GJQsqaUBKTNV-6" value="Check User Crendential" style="rhombus;whiteSpace=wrap;html=1;shadow=0;fontFamily=Helvetica;fontSize=12;align=center;strokeWidth=1;spacing=6;spacingTop=-4;" parent="WIyWlLk6GJQsqaUBKTNV-1" vertex="1">
          <mxGeometry x="170" y="170" width="100" height="80" as="geometry" />
        </mxCell>
        <mxCell id="kfMtIPWJ9hvzQRuWb3cQ-21" value="" style="edgeStyle=orthogonalEdgeStyle;rounded=0;orthogonalLoop=1;jettySize=auto;html=1;" edge="1" parent="WIyWlLk6GJQsqaUBKTNV-1" source="WIyWlLk6GJQsqaUBKTNV-11" target="kfMtIPWJ9hvzQRuWb3cQ-20">
          <mxGeometry relative="1" as="geometry" />
        </mxCell>
        <mxCell id="WIyWlLk6GJQsqaUBKTNV-11" value="Redirect Homepage" style="rounded=1;whiteSpace=wrap;html=1;fontSize=12;glass=0;strokeWidth=1;shadow=0;" parent="WIyWlLk6GJQsqaUBKTNV-1" vertex="1">
          <mxGeometry x="160" y="390" width="120" height="40" as="geometry" />
        </mxCell>
        <mxCell id="kfMtIPWJ9hvzQRuWb3cQ-0" value="Login User" style="shape=umlActor;verticalLabelPosition=bottom;verticalAlign=top;html=1;outlineConnect=0;" vertex="1" parent="WIyWlLk6GJQsqaUBKTNV-1">
          <mxGeometry x="50" y="60" width="30" height="60" as="geometry" />
        </mxCell>
        <mxCell id="kfMtIPWJ9hvzQRuWb3cQ-1" value="" style="endArrow=classic;html=1;" edge="1" parent="WIyWlLk6GJQsqaUBKTNV-1">
          <mxGeometry width="50" height="50" relative="1" as="geometry">
            <mxPoint x="80" y="89.5" as="sourcePoint" />
            <mxPoint x="160" y="89.5" as="targetPoint" />
          </mxGeometry>
        </mxCell>
        <mxCell id="kfMtIPWJ9hvzQRuWb3cQ-2" value="Enable Failed Login" style="rhombus;whiteSpace=wrap;html=1;" vertex="1" parent="WIyWlLk6GJQsqaUBKTNV-1">
          <mxGeometry x="320" y="160" width="100" height="100" as="geometry" />
        </mxCell>
        <mxCell id="kfMtIPWJ9hvzQRuWb3cQ-3" value="No" style="edgeStyle=orthogonalEdgeStyle;rounded=0;html=1;jettySize=auto;orthogonalLoop=1;fontSize=11;endArrow=block;endFill=0;endSize=8;strokeWidth=1;shadow=0;labelBackgroundColor=none;" edge="1" parent="WIyWlLk6GJQsqaUBKTNV-1">
          <mxGeometry x="-0.2" y="20" relative="1" as="geometry">
            <mxPoint x="1" as="offset" />
            <mxPoint x="369.5" y="160" as="sourcePoint" />
            <mxPoint x="369.5" y="110" as="targetPoint" />
          </mxGeometry>
        </mxCell>
        <mxCell id="kfMtIPWJ9hvzQRuWb3cQ-28" style="edgeStyle=orthogonalEdgeStyle;rounded=0;orthogonalLoop=1;jettySize=auto;html=1;entryX=0.5;entryY=0;entryDx=0;entryDy=0;" edge="1" parent="WIyWlLk6GJQsqaUBKTNV-1" source="kfMtIPWJ9hvzQRuWb3cQ-4" target="kfMtIPWJ9hvzQRuWb3cQ-27">
          <mxGeometry relative="1" as="geometry">
            <Array as="points">
              <mxPoint x="370" y="50" />
              <mxPoint x="770" y="50" />
            </Array>
          </mxGeometry>
        </mxCell>
        <mxCell id="kfMtIPWJ9hvzQRuWb3cQ-4" value="Show Failed Login msg" style="rounded=1;whiteSpace=wrap;html=1;fontSize=12;glass=0;strokeWidth=1;shadow=0;" vertex="1" parent="WIyWlLk6GJQsqaUBKTNV-1">
          <mxGeometry x="310" y="70" width="120" height="40" as="geometry" />
        </mxCell>
        <mxCell id="kfMtIPWJ9hvzQRuWb3cQ-5" value="Yes" style="edgeStyle=orthogonalEdgeStyle;rounded=0;html=1;jettySize=auto;orthogonalLoop=1;fontSize=11;endArrow=block;endFill=0;endSize=8;strokeWidth=1;shadow=0;labelBackgroundColor=none;" edge="1" parent="WIyWlLk6GJQsqaUBKTNV-1">
          <mxGeometry y="10" relative="1" as="geometry">
            <mxPoint as="offset" />
            <mxPoint x="420" y="209.5" as="sourcePoint" />
            <mxPoint x="470" y="209.5" as="targetPoint" />
          </mxGeometry>
        </mxCell>
        <mxCell id="kfMtIPWJ9hvzQRuWb3cQ-8" style="edgeStyle=orthogonalEdgeStyle;rounded=0;orthogonalLoop=1;jettySize=auto;html=1;exitX=0.5;exitY=0;exitDx=0;exitDy=0;entryX=1;entryY=0.5;entryDx=0;entryDy=0;" edge="1" parent="WIyWlLk6GJQsqaUBKTNV-1" source="kfMtIPWJ9hvzQRuWb3cQ-6" target="kfMtIPWJ9hvzQRuWb3cQ-4">
          <mxGeometry relative="1" as="geometry" />
        </mxCell>
        <mxCell id="kfMtIPWJ9hvzQRuWb3cQ-12" style="edgeStyle=orthogonalEdgeStyle;rounded=0;orthogonalLoop=1;jettySize=auto;html=1;" edge="1" parent="WIyWlLk6GJQsqaUBKTNV-1" source="kfMtIPWJ9hvzQRuWb3cQ-6">
          <mxGeometry relative="1" as="geometry">
            <mxPoint x="520" y="300" as="targetPoint" />
          </mxGeometry>
        </mxCell>
        <mxCell id="kfMtIPWJ9hvzQRuWb3cQ-6" value="Exceed Failed Count" style="rhombus;whiteSpace=wrap;html=1;" vertex="1" parent="WIyWlLk6GJQsqaUBKTNV-1">
          <mxGeometry x="470" y="160" width="100" height="100" as="geometry" />
        </mxCell>
        <mxCell id="kfMtIPWJ9hvzQRuWb3cQ-10" value="No" style="text;html=1;align=center;verticalAlign=middle;resizable=0;points=[];autosize=1;" vertex="1" parent="WIyWlLk6GJQsqaUBKTNV-1">
          <mxGeometry x="535" y="110" width="30" height="20" as="geometry" />
        </mxCell>
        <mxCell id="kfMtIPWJ9hvzQRuWb3cQ-16" value="" style="edgeStyle=orthogonalEdgeStyle;rounded=0;orthogonalLoop=1;jettySize=auto;html=1;" edge="1" parent="WIyWlLk6GJQsqaUBKTNV-1" source="kfMtIPWJ9hvzQRuWb3cQ-13" target="kfMtIPWJ9hvzQRuWb3cQ-15">
          <mxGeometry relative="1" as="geometry" />
        </mxCell>
        <mxCell id="kfMtIPWJ9hvzQRuWb3cQ-13" value="Show Failed Login nth-time msg" style="rounded=1;whiteSpace=wrap;html=1;fontSize=12;glass=0;strokeWidth=1;shadow=0;" vertex="1" parent="WIyWlLk6GJQsqaUBKTNV-1">
          <mxGeometry x="460" y="300" width="120" height="40" as="geometry" />
        </mxCell>
        <mxCell id="kfMtIPWJ9hvzQRuWb3cQ-14" value="Yes" style="text;html=1;align=center;verticalAlign=middle;resizable=0;points=[];autosize=1;" vertex="1" parent="WIyWlLk6GJQsqaUBKTNV-1">
          <mxGeometry x="520" y="270" width="40" height="20" as="geometry" />
        </mxCell>
        <mxCell id="kfMtIPWJ9hvzQRuWb3cQ-29" style="edgeStyle=orthogonalEdgeStyle;rounded=0;orthogonalLoop=1;jettySize=auto;html=1;entryX=1;entryY=0.35;entryDx=0;entryDy=0;entryPerimeter=0;" edge="1" parent="WIyWlLk6GJQsqaUBKTNV-1" source="kfMtIPWJ9hvzQRuWb3cQ-15" target="kfMtIPWJ9hvzQRuWb3cQ-27">
          <mxGeometry relative="1" as="geometry" />
        </mxCell>
        <mxCell id="kfMtIPWJ9hvzQRuWb3cQ-15" value="Locked Account" style="whiteSpace=wrap;html=1;rounded=1;shadow=0;strokeWidth=1;glass=0;" vertex="1" parent="WIyWlLk6GJQsqaUBKTNV-1">
          <mxGeometry x="620" y="295" width="110" height="50" as="geometry" />
        </mxCell>
        <mxCell id="kfMtIPWJ9hvzQRuWb3cQ-19" value="" style="edgeStyle=orthogonalEdgeStyle;rounded=0;orthogonalLoop=1;jettySize=auto;html=1;" edge="1" parent="WIyWlLk6GJQsqaUBKTNV-1" source="kfMtIPWJ9hvzQRuWb3cQ-17" target="WIyWlLk6GJQsqaUBKTNV-11">
          <mxGeometry relative="1" as="geometry" />
        </mxCell>
        <mxCell id="kfMtIPWJ9hvzQRuWb3cQ-17" value="Login Success" style="rounded=1;whiteSpace=wrap;html=1;fontSize=12;glass=0;strokeWidth=1;shadow=0;" vertex="1" parent="WIyWlLk6GJQsqaUBKTNV-1">
          <mxGeometry x="160" y="305" width="120" height="40" as="geometry" />
        </mxCell>
        <mxCell id="kfMtIPWJ9hvzQRuWb3cQ-23" value="" style="edgeStyle=orthogonalEdgeStyle;rounded=0;orthogonalLoop=1;jettySize=auto;html=1;" edge="1" parent="WIyWlLk6GJQsqaUBKTNV-1" source="kfMtIPWJ9hvzQRuWb3cQ-20" target="kfMtIPWJ9hvzQRuWb3cQ-22">
          <mxGeometry relative="1" as="geometry" />
        </mxCell>
        <mxCell id="kfMtIPWJ9hvzQRuWb3cQ-20" value="Check Company Payroll Country" style="whiteSpace=wrap;html=1;rounded=1;shadow=0;strokeWidth=1;glass=0;" vertex="1" parent="WIyWlLk6GJQsqaUBKTNV-1">
          <mxGeometry x="360" y="380" width="120" height="60" as="geometry" />
        </mxCell>
        <mxCell id="1F9J7EZj6GSI6pLqUVM7-3" value="" style="edgeStyle=orthogonalEdgeStyle;rounded=0;orthogonalLoop=1;jettySize=auto;html=1;" edge="1" parent="WIyWlLk6GJQsqaUBKTNV-1" source="kfMtIPWJ9hvzQRuWb3cQ-22" target="1F9J7EZj6GSI6pLqUVM7-2">
          <mxGeometry relative="1" as="geometry" />
        </mxCell>
        <mxCell id="kfMtIPWJ9hvzQRuWb3cQ-22" value="Populate Available language selection" style="whiteSpace=wrap;html=1;rounded=1;shadow=0;strokeWidth=1;glass=0;" vertex="1" parent="WIyWlLk6GJQsqaUBKTNV-1">
          <mxGeometry x="360" y="480" width="120" height="60" as="geometry" />
        </mxCell>
        <mxCell id="kfMtIPWJ9hvzQRuWb3cQ-24" value="valid" style="text;html=1;align=center;verticalAlign=middle;resizable=0;points=[];autosize=1;" vertex="1" parent="WIyWlLk6GJQsqaUBKTNV-1">
          <mxGeometry x="220" y="260" width="40" height="20" as="geometry" />
        </mxCell>
        <mxCell id="kfMtIPWJ9hvzQRuWb3cQ-25" value="" style="edgeStyle=orthogonalEdgeStyle;rounded=0;orthogonalLoop=1;jettySize=auto;html=1;entryX=0.5;entryY=0;entryDx=0;entryDy=0;" edge="1" parent="WIyWlLk6GJQsqaUBKTNV-1" target="kfMtIPWJ9hvzQRuWb3cQ-17">
          <mxGeometry relative="1" as="geometry">
            <mxPoint x="220" y="250" as="sourcePoint" />
            <mxPoint x="220" y="295" as="targetPoint" />
          </mxGeometry>
        </mxCell>
        <mxCell id="kfMtIPWJ9hvzQRuWb3cQ-27" value="End" style="ellipse;whiteSpace=wrap;html=1;aspect=fixed;" vertex="1" parent="WIyWlLk6GJQsqaUBKTNV-1">
          <mxGeometry x="750" y="490" width="40" height="40" as="geometry" />
        </mxCell>
        <mxCell id="kfMtIPWJ9hvzQRuWb3cQ-31" value="Refer Language Selection sheet for more details" style="text;html=1;align=center;verticalAlign=middle;resizable=0;points=[];autosize=1;" vertex="1" parent="WIyWlLk6GJQsqaUBKTNV-1">
          <mxGeometry x="275" y="540" width="270" height="20" as="geometry" />
        </mxCell>
        <mxCell id="_1jM3c5Lw7iFG9Ts0uBe-0" value="&lt;font size=&quot;3&quot;&gt;&lt;b&gt;Login Workflow&lt;/b&gt;&lt;/font&gt;" style="text;html=1;align=center;verticalAlign=middle;resizable=0;points=[];autosize=1;" vertex="1" parent="WIyWlLk6GJQsqaUBKTNV-1">
          <mxGeometry x="30" y="20" width="140" height="20" as="geometry" />
        </mxCell>
        <mxCell id="1F9J7EZj6GSI6pLqUVM7-4" value="" style="edgeStyle=orthogonalEdgeStyle;rounded=0;orthogonalLoop=1;jettySize=auto;html=1;" edge="1" parent="WIyWlLk6GJQsqaUBKTNV-1" source="1F9J7EZj6GSI6pLqUVM7-2" target="kfMtIPWJ9hvzQRuWb3cQ-27">
          <mxGeometry relative="1" as="geometry" />
        </mxCell>
        <mxCell id="1F9J7EZj6GSI6pLqUVM7-2" value="Default User Preferred Language Selection" style="rounded=1;whiteSpace=wrap;html=1;" vertex="1" parent="WIyWlLk6GJQsqaUBKTNV-1">
          <mxGeometry x="545" y="480" width="120" height="60" as="geometry" />
        </mxCell>
        <mxCell id="nRYhmM8a8cG_sHh72ciK-0" value="Text" style="text;html=1;strokeColor=none;fillColor=none;align=center;verticalAlign=middle;whiteSpace=wrap;rounded=0;" vertex="1" parent="WIyWlLk6GJQsqaUBKTNV-1">
          <mxGeometry x="430" y="320" width="40" height="20" as="geometry" />
        </mxCell>
        <mxCell id="nRYhmM8a8cG_sHh72ciK-1" value="&lt;b&gt;[Note:If login user is internal user&lt;br&gt;might need to switch&lt;br&gt;company first]&lt;/b&gt;" style="text;html=1;align=center;verticalAlign=middle;resizable=0;points=[];autosize=1;" vertex="1" parent="WIyWlLk6GJQsqaUBKTNV-1">
          <mxGeometry x="175" y="460" width="210" height="50" as="geometry" />
        </mxCell>
        <mxCell id="nRYhmM8a8cG_sHh72ciK-2" value="" style="endArrow=classic;html=1;" edge="1" parent="WIyWlLk6GJQsqaUBKTNV-1">
          <mxGeometry width="50" height="50" relative="1" as="geometry">
            <mxPoint x="310" y="460" as="sourcePoint" />
            <mxPoint x="310" y="430" as="targetPoint" />
          </mxGeometry>
        </mxCell>
      </root>
    </mxGraphModel>
  </diagram>
  <diagram id="NP96JUk-zomSuXR2eYI8" name="Language Selection">
    <mxGraphModel dx="1240" dy="689" grid="1" gridSize="10" guides="1" tooltips="1" connect="1" arrows="1" fold="1" page="1" pageScale="1" pageWidth="850" pageHeight="1100" math="0" shadow="0">
      <root>
        <mxCell id="XNVSRuxR_t44QMIjwxG1-0" />
        <mxCell id="XNVSRuxR_t44QMIjwxG1-1" parent="XNVSRuxR_t44QMIjwxG1-0" />
        <mxCell id="jlVox8yY6K0Oi9bAq_ej-1" value="" style="edgeStyle=orthogonalEdgeStyle;rounded=0;orthogonalLoop=1;jettySize=auto;html=1;" edge="1" parent="XNVSRuxR_t44QMIjwxG1-1" source="1Wh8PvqfZ_vHO5MVgYGX-0" target="jlVox8yY6K0Oi9bAq_ej-0">
          <mxGeometry relative="1" as="geometry" />
        </mxCell>
        <mxCell id="1Wh8PvqfZ_vHO5MVgYGX-0" value="Login User" style="shape=umlActor;verticalLabelPosition=bottom;verticalAlign=top;html=1;outlineConnect=0;" vertex="1" parent="XNVSRuxR_t44QMIjwxG1-1">
          <mxGeometry x="70" y="70" width="30" height="60" as="geometry" />
        </mxCell>
        <mxCell id="jlVox8yY6K0Oi9bAq_ej-3" value="" style="edgeStyle=orthogonalEdgeStyle;rounded=0;orthogonalLoop=1;jettySize=auto;html=1;" edge="1" parent="XNVSRuxR_t44QMIjwxG1-1" source="jlVox8yY6K0Oi9bAq_ej-0">
          <mxGeometry relative="1" as="geometry">
            <mxPoint x="220" y="179.9999999999999" as="targetPoint" />
          </mxGeometry>
        </mxCell>
        <mxCell id="jlVox8yY6K0Oi9bAq_ej-0" value="Change Preferred Language" style="rounded=1;whiteSpace=wrap;html=1;" vertex="1" parent="XNVSRuxR_t44QMIjwxG1-1">
          <mxGeometry x="160" y="70" width="120" height="60" as="geometry" />
        </mxCell>
        <mxCell id="jlVox8yY6K0Oi9bAq_ej-6" value="" style="edgeStyle=orthogonalEdgeStyle;rounded=0;orthogonalLoop=1;jettySize=auto;html=1;" edge="1" parent="XNVSRuxR_t44QMIjwxG1-1" source="jlVox8yY6K0Oi9bAq_ej-4" target="jlVox8yY6K0Oi9bAq_ej-5">
          <mxGeometry relative="1" as="geometry" />
        </mxCell>
        <mxCell id="jlVox8yY6K0Oi9bAq_ej-9" style="edgeStyle=orthogonalEdgeStyle;rounded=0;orthogonalLoop=1;jettySize=auto;html=1;exitX=0.5;exitY=1;exitDx=0;exitDy=0;entryX=0.5;entryY=0;entryDx=0;entryDy=0;" edge="1" parent="XNVSRuxR_t44QMIjwxG1-1" source="jlVox8yY6K0Oi9bAq_ej-4" target="jlVox8yY6K0Oi9bAq_ej-8">
          <mxGeometry relative="1" as="geometry" />
        </mxCell>
        <mxCell id="jlVox8yY6K0Oi9bAq_ej-4" value="Language available" style="rhombus;whiteSpace=wrap;html=1;" vertex="1" parent="XNVSRuxR_t44QMIjwxG1-1">
          <mxGeometry x="180" y="180" width="80" height="80" as="geometry" />
        </mxCell>
        <mxCell id="jlVox8yY6K0Oi9bAq_ej-21" style="edgeStyle=orthogonalEdgeStyle;rounded=0;orthogonalLoop=1;jettySize=auto;html=1;entryX=0;entryY=0.5;entryDx=0;entryDy=0;" edge="1" parent="XNVSRuxR_t44QMIjwxG1-1" source="jlVox8yY6K0Oi9bAq_ej-5" target="jlVox8yY6K0Oi9bAq_ej-19">
          <mxGeometry relative="1" as="geometry" />
        </mxCell>
        <mxCell id="jlVox8yY6K0Oi9bAq_ej-5" value="Prompt Contact Administrator Error Msg" style="rounded=1;whiteSpace=wrap;html=1;" vertex="1" parent="XNVSRuxR_t44QMIjwxG1-1">
          <mxGeometry x="340" y="190" width="120" height="60" as="geometry" />
        </mxCell>
        <mxCell id="jlVox8yY6K0Oi9bAq_ej-7" value="No" style="text;html=1;align=center;verticalAlign=middle;resizable=0;points=[];autosize=1;" vertex="1" parent="XNVSRuxR_t44QMIjwxG1-1">
          <mxGeometry x="275" y="190" width="30" height="20" as="geometry" />
        </mxCell>
        <mxCell id="jlVox8yY6K0Oi9bAq_ej-12" value="" style="edgeStyle=orthogonalEdgeStyle;rounded=0;orthogonalLoop=1;jettySize=auto;html=1;" edge="1" parent="XNVSRuxR_t44QMIjwxG1-1" source="jlVox8yY6K0Oi9bAq_ej-8" target="jlVox8yY6K0Oi9bAq_ej-11">
          <mxGeometry relative="1" as="geometry" />
        </mxCell>
        <mxCell id="jlVox8yY6K0Oi9bAq_ej-8" value="System change default language" style="rounded=1;whiteSpace=wrap;html=1;" vertex="1" parent="XNVSRuxR_t44QMIjwxG1-1">
          <mxGeometry x="160" y="290" width="120" height="60" as="geometry" />
        </mxCell>
        <mxCell id="jlVox8yY6K0Oi9bAq_ej-10" value="Yes" style="text;html=1;align=center;verticalAlign=middle;resizable=0;points=[];autosize=1;" vertex="1" parent="XNVSRuxR_t44QMIjwxG1-1">
          <mxGeometry x="230" y="260" width="40" height="20" as="geometry" />
        </mxCell>
        <mxCell id="jlVox8yY6K0Oi9bAq_ej-14" value="" style="edgeStyle=orthogonalEdgeStyle;rounded=0;orthogonalLoop=1;jettySize=auto;html=1;" edge="1" parent="XNVSRuxR_t44QMIjwxG1-1" source="jlVox8yY6K0Oi9bAq_ej-11" target="jlVox8yY6K0Oi9bAq_ej-13">
          <mxGeometry relative="1" as="geometry" />
        </mxCell>
        <mxCell id="jlVox8yY6K0Oi9bAq_ej-11" value="Update Translation Key into Cache" style="whiteSpace=wrap;html=1;rounded=1;" vertex="1" parent="XNVSRuxR_t44QMIjwxG1-1">
          <mxGeometry x="160" y="390" width="120" height="60" as="geometry" />
        </mxCell>
        <mxCell id="jlVox8yY6K0Oi9bAq_ej-16" value="" style="edgeStyle=orthogonalEdgeStyle;rounded=0;orthogonalLoop=1;jettySize=auto;html=1;" edge="1" parent="XNVSRuxR_t44QMIjwxG1-1" source="jlVox8yY6K0Oi9bAq_ej-13" target="jlVox8yY6K0Oi9bAq_ej-15">
          <mxGeometry relative="1" as="geometry" />
        </mxCell>
        <mxCell id="jlVox8yY6K0Oi9bAq_ej-13" value="Save user preferred language selection" style="whiteSpace=wrap;html=1;rounded=1;" vertex="1" parent="XNVSRuxR_t44QMIjwxG1-1">
          <mxGeometry x="360" y="390" width="120" height="60" as="geometry" />
        </mxCell>
        <mxCell id="jlVox8yY6K0Oi9bAq_ej-18" value="" style="edgeStyle=orthogonalEdgeStyle;rounded=0;orthogonalLoop=1;jettySize=auto;html=1;" edge="1" parent="XNVSRuxR_t44QMIjwxG1-1" source="jlVox8yY6K0Oi9bAq_ej-15" target="jlVox8yY6K0Oi9bAq_ej-17">
          <mxGeometry relative="1" as="geometry" />
        </mxCell>
        <mxCell id="jlVox8yY6K0Oi9bAq_ej-15" value="Refresh page for re-rendering&amp;nbsp;" style="whiteSpace=wrap;html=1;rounded=1;" vertex="1" parent="XNVSRuxR_t44QMIjwxG1-1">
          <mxGeometry x="560" y="390" width="120" height="60" as="geometry" />
        </mxCell>
        <mxCell id="jlVox8yY6K0Oi9bAq_ej-20" style="edgeStyle=orthogonalEdgeStyle;rounded=0;orthogonalLoop=1;jettySize=auto;html=1;" edge="1" parent="XNVSRuxR_t44QMIjwxG1-1" source="jlVox8yY6K0Oi9bAq_ej-17">
          <mxGeometry relative="1" as="geometry">
            <mxPoint x="620" y="179.9999999999999" as="targetPoint" />
          </mxGeometry>
        </mxCell>
        <mxCell id="jlVox8yY6K0Oi9bAq_ej-17" value="Present the page with user&#39;s preferred language" style="whiteSpace=wrap;html=1;rounded=1;" vertex="1" parent="XNVSRuxR_t44QMIjwxG1-1">
          <mxGeometry x="560" y="250" width="120" height="60" as="geometry" />
        </mxCell>
        <mxCell id="jlVox8yY6K0Oi9bAq_ej-19" value="End" style="ellipse;whiteSpace=wrap;html=1;aspect=fixed;" vertex="1" parent="XNVSRuxR_t44QMIjwxG1-1">
          <mxGeometry x="600" y="140" width="40" height="40" as="geometry" />
        </mxCell>
        <mxCell id="jlVox8yY6K0Oi9bAq_ej-22" value="&lt;b&gt;[Note:System do not handle well &lt;br&gt;only will happen (rare case)]&lt;/b&gt;" style="text;html=1;align=center;verticalAlign=middle;resizable=0;points=[];autosize=1;" vertex="1" parent="XNVSRuxR_t44QMIjwxG1-1">
          <mxGeometry x="275" y="155" width="200" height="30" as="geometry" />
        </mxCell>
        <mxCell id="zQ1zC0l2z43dEUZwNcpW-0" value="&lt;font style=&quot;font-size: 18px&quot;&gt;&lt;b&gt;Language Selection&lt;/b&gt;&lt;/font&gt;" style="text;html=1;align=center;verticalAlign=middle;resizable=0;points=[];autosize=1;" vertex="1" parent="XNVSRuxR_t44QMIjwxG1-1">
          <mxGeometry x="20" y="30" width="190" height="20" as="geometry" />
        </mxCell>
      </root>
    </mxGraphModel>
  </diagram>
  <diagram id="NcqKCsRoOt5C_vWAzytk" name="Employee Statutory">
    <mxGraphModel dx="1240" dy="689" grid="1" gridSize="10" guides="1" tooltips="1" connect="1" arrows="1" fold="1" page="1" pageScale="1" pageWidth="850" pageHeight="1100" math="0" shadow="0">
      <root>
        <mxCell id="Ta-xo2IJvp7dTiizBVcs-0" />
        <mxCell id="Ta-xo2IJvp7dTiizBVcs-1" parent="Ta-xo2IJvp7dTiizBVcs-0" />
        <mxCell id="E4KvRgQG7fiURb4fW0jU-2" value="" style="edgeStyle=orthogonalEdgeStyle;rounded=0;orthogonalLoop=1;jettySize=auto;html=1;" edge="1" parent="Ta-xo2IJvp7dTiizBVcs-1" source="E4KvRgQG7fiURb4fW0jU-0" target="E4KvRgQG7fiURb4fW0jU-1">
          <mxGeometry relative="1" as="geometry" />
        </mxCell>
        <mxCell id="E4KvRgQG7fiURb4fW0jU-0" value="Login User" style="shape=umlActor;verticalLabelPosition=bottom;verticalAlign=top;html=1;outlineConnect=0;" vertex="1" parent="Ta-xo2IJvp7dTiizBVcs-1">
          <mxGeometry x="70" y="90" width="30" height="60" as="geometry" />
        </mxCell>
        <mxCell id="E4KvRgQG7fiURb4fW0jU-4" value="" style="edgeStyle=orthogonalEdgeStyle;rounded=0;orthogonalLoop=1;jettySize=auto;html=1;" edge="1" parent="Ta-xo2IJvp7dTiizBVcs-1" source="E4KvRgQG7fiURb4fW0jU-1" target="E4KvRgQG7fiURb4fW0jU-3">
          <mxGeometry relative="1" as="geometry" />
        </mxCell>
        <mxCell id="E4KvRgQG7fiURb4fW0jU-1" value="Edit existing employee" style="rounded=1;whiteSpace=wrap;html=1;" vertex="1" parent="Ta-xo2IJvp7dTiizBVcs-1">
          <mxGeometry x="170" y="90" width="120" height="60" as="geometry" />
        </mxCell>
        <mxCell id="E4KvRgQG7fiURb4fW0jU-6" value="" style="edgeStyle=orthogonalEdgeStyle;rounded=0;orthogonalLoop=1;jettySize=auto;html=1;" edge="1" parent="Ta-xo2IJvp7dTiizBVcs-1" source="E4KvRgQG7fiURb4fW0jU-3" target="E4KvRgQG7fiURb4fW0jU-5">
          <mxGeometry relative="1" as="geometry" />
        </mxCell>
        <mxCell id="E4KvRgQG7fiURb4fW0jU-3" value="Navigate to Statutory tab" style="whiteSpace=wrap;html=1;rounded=1;" vertex="1" parent="Ta-xo2IJvp7dTiizBVcs-1">
          <mxGeometry x="370" y="90" width="120" height="60" as="geometry" />
        </mxCell>
        <mxCell id="E4KvRgQG7fiURb4fW0jU-8" value="" style="edgeStyle=orthogonalEdgeStyle;rounded=0;orthogonalLoop=1;jettySize=auto;html=1;" edge="1" parent="Ta-xo2IJvp7dTiizBVcs-1" source="E4KvRgQG7fiURb4fW0jU-5" target="E4KvRgQG7fiURb4fW0jU-7">
          <mxGeometry relative="1" as="geometry" />
        </mxCell>
        <mxCell id="E4KvRgQG7fiURb4fW0jU-5" value="Check Company Payroll Country" style="whiteSpace=wrap;html=1;rounded=1;" vertex="1" parent="Ta-xo2IJvp7dTiizBVcs-1">
          <mxGeometry x="370" y="200" width="120" height="60" as="geometry" />
        </mxCell>
        <mxCell id="E4KvRgQG7fiURb4fW0jU-10" value="" style="edgeStyle=orthogonalEdgeStyle;rounded=0;orthogonalLoop=1;jettySize=auto;html=1;" edge="1" parent="Ta-xo2IJvp7dTiizBVcs-1" source="E4KvRgQG7fiURb4fW0jU-7" target="E4KvRgQG7fiURb4fW0jU-9">
          <mxGeometry relative="1" as="geometry" />
        </mxCell>
        <mxCell id="E4KvRgQG7fiURb4fW0jU-7" value="Render available controls based on payroll country" style="whiteSpace=wrap;html=1;rounded=1;" vertex="1" parent="Ta-xo2IJvp7dTiizBVcs-1">
          <mxGeometry x="370" y="300" width="120" height="60" as="geometry" />
        </mxCell>
        <mxCell id="E4KvRgQG7fiURb4fW0jU-12" value="" style="edgeStyle=orthogonalEdgeStyle;rounded=0;orthogonalLoop=1;jettySize=auto;html=1;" edge="1" parent="Ta-xo2IJvp7dTiizBVcs-1" source="E4KvRgQG7fiURb4fW0jU-9" target="E4KvRgQG7fiURb4fW0jU-11">
          <mxGeometry relative="1" as="geometry" />
        </mxCell>
        <mxCell id="E4KvRgQG7fiURb4fW0jU-9" value="Create/Update payroll related field" style="whiteSpace=wrap;html=1;rounded=1;" vertex="1" parent="Ta-xo2IJvp7dTiizBVcs-1">
          <mxGeometry x="370" y="400" width="120" height="60" as="geometry" />
        </mxCell>
        <mxCell id="E4KvRgQG7fiURb4fW0jU-16" value="" style="edgeStyle=orthogonalEdgeStyle;rounded=0;orthogonalLoop=1;jettySize=auto;html=1;" edge="1" parent="Ta-xo2IJvp7dTiizBVcs-1" source="E4KvRgQG7fiURb4fW0jU-11" target="E4KvRgQG7fiURb4fW0jU-15">
          <mxGeometry relative="1" as="geometry" />
        </mxCell>
        <mxCell id="E4KvRgQG7fiURb4fW0jU-11" value="Save the record" style="whiteSpace=wrap;html=1;rounded=1;" vertex="1" parent="Ta-xo2IJvp7dTiizBVcs-1">
          <mxGeometry x="530" y="200" width="120" height="60" as="geometry" />
        </mxCell>
        <mxCell id="E4KvRgQG7fiURb4fW0jU-18" value="" style="edgeStyle=orthogonalEdgeStyle;rounded=0;orthogonalLoop=1;jettySize=auto;html=1;" edge="1" parent="Ta-xo2IJvp7dTiizBVcs-1" source="E4KvRgQG7fiURb4fW0jU-15" target="E4KvRgQG7fiURb4fW0jU-17">
          <mxGeometry relative="1" as="geometry" />
        </mxCell>
        <mxCell id="E4KvRgQG7fiURb4fW0jU-21" value="" style="edgeStyle=orthogonalEdgeStyle;rounded=0;orthogonalLoop=1;jettySize=auto;html=1;" edge="1" parent="Ta-xo2IJvp7dTiizBVcs-1" source="E4KvRgQG7fiURb4fW0jU-15" target="E4KvRgQG7fiURb4fW0jU-20">
          <mxGeometry relative="1" as="geometry" />
        </mxCell>
        <mxCell id="E4KvRgQG7fiURb4fW0jU-15" value="Validate Mandatory Fields" style="rhombus;whiteSpace=wrap;html=1;" vertex="1" parent="Ta-xo2IJvp7dTiizBVcs-1">
          <mxGeometry x="720" y="190" width="90" height="80" as="geometry" />
        </mxCell>
        <mxCell id="E4KvRgQG7fiURb4fW0jU-26" style="edgeStyle=orthogonalEdgeStyle;rounded=0;orthogonalLoop=1;jettySize=auto;html=1;" edge="1" parent="Ta-xo2IJvp7dTiizBVcs-1" source="E4KvRgQG7fiURb4fW0jU-17" target="E4KvRgQG7fiURb4fW0jU-25">
          <mxGeometry relative="1" as="geometry" />
        </mxCell>
        <mxCell id="E4KvRgQG7fiURb4fW0jU-17" value="Commit the save action" style="rounded=1;whiteSpace=wrap;html=1;" vertex="1" parent="Ta-xo2IJvp7dTiizBVcs-1">
          <mxGeometry x="705" y="310" width="120" height="60" as="geometry" />
        </mxCell>
        <mxCell id="E4KvRgQG7fiURb4fW0jU-19" value="Passed" style="text;html=1;align=center;verticalAlign=middle;resizable=0;points=[];autosize=1;" vertex="1" parent="Ta-xo2IJvp7dTiizBVcs-1">
          <mxGeometry x="760" y="270" width="60" height="20" as="geometry" />
        </mxCell>
        <mxCell id="E4KvRgQG7fiURb4fW0jU-27" style="edgeStyle=orthogonalEdgeStyle;rounded=0;orthogonalLoop=1;jettySize=auto;html=1;entryX=0.5;entryY=0;entryDx=0;entryDy=0;" edge="1" parent="Ta-xo2IJvp7dTiizBVcs-1" source="E4KvRgQG7fiURb4fW0jU-20" target="E4KvRgQG7fiURb4fW0jU-25">
          <mxGeometry relative="1" as="geometry" />
        </mxCell>
        <mxCell id="E4KvRgQG7fiURb4fW0jU-20" value="Show Required Field Error Msg" style="rounded=1;whiteSpace=wrap;html=1;" vertex="1" parent="Ta-xo2IJvp7dTiizBVcs-1">
          <mxGeometry x="705" y="80" width="120" height="60" as="geometry" />
        </mxCell>
        <mxCell id="E4KvRgQG7fiURb4fW0jU-22" value="Failed" style="text;html=1;align=center;verticalAlign=middle;resizable=0;points=[];autosize=1;" vertex="1" parent="Ta-xo2IJvp7dTiizBVcs-1">
          <mxGeometry x="765" y="170" width="50" height="20" as="geometry" />
        </mxCell>
        <mxCell id="E4KvRgQG7fiURb4fW0jU-23" value="&lt;b&gt;[Note: Refer Validation sheet &lt;br&gt;for more details]&lt;/b&gt;" style="text;html=1;align=center;verticalAlign=middle;resizable=0;points=[];autosize=1;" vertex="1" parent="Ta-xo2IJvp7dTiizBVcs-1">
          <mxGeometry x="510" y="150" width="180" height="30" as="geometry" />
        </mxCell>
        <mxCell id="E4KvRgQG7fiURb4fW0jU-24" value="" style="endArrow=classic;html=1;" edge="1" parent="Ta-xo2IJvp7dTiizBVcs-1">
          <mxGeometry width="50" height="50" relative="1" as="geometry">
            <mxPoint x="680" y="170" as="sourcePoint" />
            <mxPoint x="730" y="210" as="targetPoint" />
          </mxGeometry>
        </mxCell>
        <mxCell id="E4KvRgQG7fiURb4fW0jU-25" value="End" style="ellipse;whiteSpace=wrap;html=1;aspect=fixed;" vertex="1" parent="Ta-xo2IJvp7dTiizBVcs-1">
          <mxGeometry x="640" y="440" width="50" height="50" as="geometry" />
        </mxCell>
        <mxCell id="E4KvRgQG7fiURb4fW0jU-28" value="&lt;font style=&quot;font-size: 18px&quot;&gt;&lt;b&gt;Employee Statutory&lt;/b&gt;&lt;/font&gt;" style="text;html=1;align=center;verticalAlign=middle;resizable=0;points=[];autosize=1;" vertex="1" parent="Ta-xo2IJvp7dTiizBVcs-1">
          <mxGeometry x="30" y="30" width="180" height="20" as="geometry" />
        </mxCell>
        <mxCell id="E4KvRgQG7fiURb4fW0jU-37" value="" style="edgeStyle=orthogonalEdgeStyle;rounded=0;orthogonalLoop=1;jettySize=auto;html=1;" edge="1" parent="Ta-xo2IJvp7dTiizBVcs-1" source="E4KvRgQG7fiURb4fW0jU-29" target="E4KvRgQG7fiURb4fW0jU-30">
          <mxGeometry relative="1" as="geometry" />
        </mxCell>
        <mxCell id="E4KvRgQG7fiURb4fW0jU-29" value="Login User" style="shape=umlActor;verticalLabelPosition=bottom;verticalAlign=top;html=1;outlineConnect=0;" vertex="1" parent="Ta-xo2IJvp7dTiizBVcs-1">
          <mxGeometry x="70" y="530" width="30" height="60" as="geometry" />
        </mxCell>
        <mxCell id="E4KvRgQG7fiURb4fW0jU-32" value="" style="edgeStyle=orthogonalEdgeStyle;rounded=0;orthogonalLoop=1;jettySize=auto;html=1;" edge="1" parent="Ta-xo2IJvp7dTiizBVcs-1" source="E4KvRgQG7fiURb4fW0jU-30" target="E4KvRgQG7fiURb4fW0jU-31">
          <mxGeometry relative="1" as="geometry" />
        </mxCell>
        <mxCell id="E4KvRgQG7fiURb4fW0jU-30" value="Create New Employee" style="rounded=1;whiteSpace=wrap;html=1;" vertex="1" parent="Ta-xo2IJvp7dTiizBVcs-1">
          <mxGeometry x="170" y="530" width="120" height="60" as="geometry" />
        </mxCell>
        <mxCell id="E4KvRgQG7fiURb4fW0jU-34" value="" style="edgeStyle=orthogonalEdgeStyle;rounded=0;orthogonalLoop=1;jettySize=auto;html=1;" edge="1" parent="Ta-xo2IJvp7dTiizBVcs-1" source="E4KvRgQG7fiURb4fW0jU-31" target="E4KvRgQG7fiURb4fW0jU-33">
          <mxGeometry relative="1" as="geometry" />
        </mxCell>
        <mxCell id="E4KvRgQG7fiURb4fW0jU-31" value="Refer Create Employee worksheet" style="whiteSpace=wrap;html=1;rounded=1;" vertex="1" parent="Ta-xo2IJvp7dTiizBVcs-1">
          <mxGeometry x="170" y="390" width="120" height="60" as="geometry" />
        </mxCell>
        <mxCell id="E4KvRgQG7fiURb4fW0jU-35" style="edgeStyle=orthogonalEdgeStyle;rounded=0;orthogonalLoop=1;jettySize=auto;html=1;" edge="1" parent="Ta-xo2IJvp7dTiizBVcs-1" source="E4KvRgQG7fiURb4fW0jU-33">
          <mxGeometry relative="1" as="geometry">
            <mxPoint x="360" y="120" as="targetPoint" />
          </mxGeometry>
        </mxCell>
        <mxCell id="E4KvRgQG7fiURb4fW0jU-33" value="Save Record" style="whiteSpace=wrap;html=1;rounded=1;" vertex="1" parent="Ta-xo2IJvp7dTiizBVcs-1">
          <mxGeometry x="170" y="280" width="120" height="60" as="geometry" />
        </mxCell>
        <mxCell id="E4KvRgQG7fiURb4fW0jU-36" value="&lt;b&gt;[Note: upon save will change to edit mode &lt;br&gt;when completing create &lt;br&gt;new employee workflow]&lt;/b&gt;" style="text;html=1;align=center;verticalAlign=middle;resizable=0;points=[];autosize=1;" vertex="1" parent="Ta-xo2IJvp7dTiizBVcs-1">
          <mxGeometry x="85" y="180" width="260" height="50" as="geometry" />
        </mxCell>
      </root>
    </mxGraphModel>
  </diagram>
  <diagram id="XwnnkPm3SbqNLG1X4qz_" name="Validation">
    <mxGraphModel dx="1021" dy="567" grid="1" gridSize="10" guides="1" tooltips="1" connect="1" arrows="1" fold="1" page="1" pageScale="1" pageWidth="850" pageHeight="1100" math="0" shadow="0">
      <root>
        <mxCell id="2zCuVI_hOEHo3Ry-sPip-0" />
        <mxCell id="2zCuVI_hOEHo3Ry-sPip-1" parent="2zCuVI_hOEHo3Ry-sPip-0" />
        <mxCell id="fqQddnRS0LBDzsFYSZAy-3" value="" style="edgeStyle=orthogonalEdgeStyle;rounded=0;orthogonalLoop=1;jettySize=auto;html=1;" edge="1" parent="2zCuVI_hOEHo3Ry-sPip-1" source="fqQddnRS0LBDzsFYSZAy-1" target="fqQddnRS0LBDzsFYSZAy-2">
          <mxGeometry relative="1" as="geometry" />
        </mxCell>
        <mxCell id="fqQddnRS0LBDzsFYSZAy-1" value="Validation Start" style="ellipse;whiteSpace=wrap;html=1;" vertex="1" parent="2zCuVI_hOEHo3Ry-sPip-1">
          <mxGeometry x="340" y="50" width="120" height="80" as="geometry" />
        </mxCell>
        <mxCell id="fqQddnRS0LBDzsFYSZAy-6" value="" style="edgeStyle=orthogonalEdgeStyle;rounded=0;orthogonalLoop=1;jettySize=auto;html=1;" edge="1" parent="2zCuVI_hOEHo3Ry-sPip-1" source="fqQddnRS0LBDzsFYSZAy-2" target="fqQddnRS0LBDzsFYSZAy-5">
          <mxGeometry relative="1" as="geometry" />
        </mxCell>
        <mxCell id="fqQddnRS0LBDzsFYSZAy-9" value="" style="edgeStyle=orthogonalEdgeStyle;rounded=0;orthogonalLoop=1;jettySize=auto;html=1;" edge="1" parent="2zCuVI_hOEHo3Ry-sPip-1" source="fqQddnRS0LBDzsFYSZAy-2" target="fqQddnRS0LBDzsFYSZAy-8">
          <mxGeometry relative="1" as="geometry" />
        </mxCell>
        <mxCell id="fqQddnRS0LBDzsFYSZAy-2" value="Is Nationality same as Payroll Country" style="rhombus;whiteSpace=wrap;html=1;" vertex="1" parent="2zCuVI_hOEHo3Ry-sPip-1">
          <mxGeometry x="335" y="150" width="130" height="90" as="geometry" />
        </mxCell>
        <mxCell id="RXbyw_wVodPhR4q4j1tH-2" value="" style="edgeStyle=orthogonalEdgeStyle;rounded=0;orthogonalLoop=1;jettySize=auto;html=1;" edge="1" parent="2zCuVI_hOEHo3Ry-sPip-1" source="fqQddnRS0LBDzsFYSZAy-5" target="RXbyw_wVodPhR4q4j1tH-1">
          <mxGeometry relative="1" as="geometry" />
        </mxCell>
        <mxCell id="RXbyw_wVodPhR4q4j1tH-5" style="edgeStyle=orthogonalEdgeStyle;rounded=0;orthogonalLoop=1;jettySize=auto;html=1;entryX=0.5;entryY=0;entryDx=0;entryDy=0;" edge="1" parent="2zCuVI_hOEHo3Ry-sPip-1" source="fqQddnRS0LBDzsFYSZAy-5" target="RXbyw_wVodPhR4q4j1tH-4">
          <mxGeometry relative="1" as="geometry" />
        </mxCell>
        <mxCell id="fqQddnRS0LBDzsFYSZAy-5" value="&lt;span&gt;Is Payroll Country mandatory fields filled up&lt;/span&gt;" style="rhombus;whiteSpace=wrap;html=1;" vertex="1" parent="2zCuVI_hOEHo3Ry-sPip-1">
          <mxGeometry x="327.5" y="270" width="145" height="80" as="geometry" />
        </mxCell>
        <mxCell id="fqQddnRS0LBDzsFYSZAy-7" value="Yes" style="text;html=1;align=center;verticalAlign=middle;resizable=0;points=[];autosize=1;" vertex="1" parent="2zCuVI_hOEHo3Ry-sPip-1">
          <mxGeometry x="400" y="240" width="40" height="20" as="geometry" />
        </mxCell>
        <mxCell id="RXbyw_wVodPhR4q4j1tH-8" style="edgeStyle=orthogonalEdgeStyle;rounded=0;orthogonalLoop=1;jettySize=auto;html=1;" edge="1" parent="2zCuVI_hOEHo3Ry-sPip-1" source="fqQddnRS0LBDzsFYSZAy-8" target="fqQddnRS0LBDzsFYSZAy-5">
          <mxGeometry relative="1" as="geometry">
            <Array as="points">
              <mxPoint x="490" y="195" />
              <mxPoint x="490" y="260" />
              <mxPoint x="400" y="260" />
            </Array>
          </mxGeometry>
        </mxCell>
        <mxCell id="fqQddnRS0LBDzsFYSZAy-8" value="Foreigner Validation" style="rounded=1;whiteSpace=wrap;html=1;" vertex="1" parent="2zCuVI_hOEHo3Ry-sPip-1">
          <mxGeometry x="520" y="165" width="120" height="60" as="geometry" />
        </mxCell>
        <mxCell id="fqQddnRS0LBDzsFYSZAy-10" value="&lt;b&gt;[Note:eg, Malaysia -&amp;gt; EPF, Socso, PCB No&lt;br&gt;Singapore -&amp;gt; CPF&amp;nbsp; &amp;nbsp; &amp;nbsp; &amp;nbsp; &amp;nbsp; &amp;nbsp; &amp;nbsp; &amp;nbsp; &amp;nbsp; &amp;nbsp;&lt;br&gt;Hong Kong -&amp;gt; MPF]&amp;nbsp; &amp;nbsp; &amp;nbsp; &amp;nbsp; &amp;nbsp; &amp;nbsp; &amp;nbsp; &amp;nbsp;&amp;nbsp;&lt;/b&gt;" style="text;html=1;strokeColor=none;fillColor=none;align=center;verticalAlign=middle;whiteSpace=wrap;rounded=0;" vertex="1" parent="2zCuVI_hOEHo3Ry-sPip-1">
          <mxGeometry x="80" y="240" width="280" height="20" as="geometry" />
        </mxCell>
        <mxCell id="RXbyw_wVodPhR4q4j1tH-0" value="" style="endArrow=classic;html=1;" edge="1" parent="2zCuVI_hOEHo3Ry-sPip-1">
          <mxGeometry width="50" height="50" relative="1" as="geometry">
            <mxPoint x="320" y="260" as="sourcePoint" />
            <mxPoint x="350" y="280" as="targetPoint" />
          </mxGeometry>
        </mxCell>
        <mxCell id="RXbyw_wVodPhR4q4j1tH-13" style="edgeStyle=orthogonalEdgeStyle;rounded=0;orthogonalLoop=1;jettySize=auto;html=1;entryX=0;entryY=0.5;entryDx=0;entryDy=0;" edge="1" parent="2zCuVI_hOEHo3Ry-sPip-1" source="RXbyw_wVodPhR4q4j1tH-1" target="RXbyw_wVodPhR4q4j1tH-10">
          <mxGeometry relative="1" as="geometry">
            <Array as="points">
              <mxPoint x="390" y="490" />
              <mxPoint x="470" y="490" />
              <mxPoint x="470" y="537" />
            </Array>
          </mxGeometry>
        </mxCell>
        <mxCell id="RXbyw_wVodPhR4q4j1tH-1" value="Save the record" style="rounded=1;whiteSpace=wrap;html=1;" vertex="1" parent="2zCuVI_hOEHo3Ry-sPip-1">
          <mxGeometry x="340" y="390" width="120" height="60" as="geometry" />
        </mxCell>
        <mxCell id="RXbyw_wVodPhR4q4j1tH-3" value="Yes" style="text;html=1;align=center;verticalAlign=middle;resizable=0;points=[];autosize=1;" vertex="1" parent="2zCuVI_hOEHo3Ry-sPip-1">
          <mxGeometry x="400" y="350" width="40" height="20" as="geometry" />
        </mxCell>
        <mxCell id="RXbyw_wVodPhR4q4j1tH-14" style="edgeStyle=orthogonalEdgeStyle;rounded=0;orthogonalLoop=1;jettySize=auto;html=1;" edge="1" parent="2zCuVI_hOEHo3Ry-sPip-1" source="RXbyw_wVodPhR4q4j1tH-4">
          <mxGeometry relative="1" as="geometry">
            <mxPoint x="540" y="540" as="targetPoint" />
            <Array as="points">
              <mxPoint x="610" y="495" />
              <mxPoint x="560" y="495" />
              <mxPoint x="560" y="540" />
            </Array>
          </mxGeometry>
        </mxCell>
        <mxCell id="RXbyw_wVodPhR4q4j1tH-4" value="Prompt Validation Msg" style="rounded=1;whiteSpace=wrap;html=1;" vertex="1" parent="2zCuVI_hOEHo3Ry-sPip-1">
          <mxGeometry x="550" y="390" width="120" height="60" as="geometry" />
        </mxCell>
        <mxCell id="RXbyw_wVodPhR4q4j1tH-6" value="No" style="text;html=1;align=center;verticalAlign=middle;resizable=0;points=[];autosize=1;" vertex="1" parent="2zCuVI_hOEHo3Ry-sPip-1">
          <mxGeometry x="505" y="320" width="30" height="20" as="geometry" />
        </mxCell>
        <mxCell id="RXbyw_wVodPhR4q4j1tH-9" value="No" style="text;html=1;align=center;verticalAlign=middle;resizable=0;points=[];autosize=1;" vertex="1" parent="2zCuVI_hOEHo3Ry-sPip-1">
          <mxGeometry x="475" y="170" width="30" height="20" as="geometry" />
        </mxCell>
        <mxCell id="RXbyw_wVodPhR4q4j1tH-10" value="End" style="ellipse;whiteSpace=wrap;html=1;aspect=fixed;" vertex="1" parent="2zCuVI_hOEHo3Ry-sPip-1">
          <mxGeometry x="490" y="515" width="45" height="45" as="geometry" />
        </mxCell>
      </root>
    </mxGraphModel>
  </diagram>
</mxfile>
